<svg wwidth="100" height="30" viewBox="0 0 300 100" fill="none" xmlns="http://www.w3.org/2000/svg">
<path fill-rule="evenodd" clip-rule="evenodd" d="M0 0C93.333 0 186.667 0 280 0C280 32 280 64 280 96C186.667 96 93.333 96 0 96C0 64 0 32 0 0Z" fill="#126784"/>
<path fill-rule="evenodd" clip-rule="evenodd" d="M3 3C94.333 3 185.667 3 277 3C277 33 277 63 277 93C185.667 93 94.333 93 3 93C3 63 3 33 3 3Z" fill="#FEFEFE"/>
<path fill-rule="evenodd" clip-rule="evenodd" d="M7.5 8.5C73.5 8.5 139.5 8.5 205.5 8.5C205.5 34.5 205.5 60.5 205.5 86.5C139.5 86.5 73.5 86.5 7.5 86.5C7.5 60.5 7.5 34.5 7.5 8.5Z" fill="#056381"/>
<path d="M146.422 59.5V56.793L158.727 39.1445H146.352V35.5H164.117V38.207L151.824 55.8555H164.188V59.5H146.422Z" fill="white"/>
<path d="M45.8672 35.5H51.1875L58.3125 52.8906H58.5938L65.7188 35.5H71.0391V59.5H66.8672V43.0117H66.6445L60.0117 59.4297H56.8945L50.2617 42.9766H50.0391V59.5H45.8672V35.5Z" fill="white"/>
<path d="M77.8672 59.5V35.5H93.4766V39.1445H82.2148V45.6602H92.668V49.3047H82.2148V55.8555H93.5703V59.5H77.8672Z" fill="white"/>
<path d="M99.8672 59.5V35.5H115.477V39.1445H104.215V45.6602H114.668V49.3047H104.215V55.8555H115.57V59.5H99.8672Z" fill="white"/>
<path d="M121.867 59.5V35.5H126.215V46.5273H126.508L135.871 35.5H141.18L131.898 46.2695L141.262 59.5H136.035L128.875 49.2109L126.215 52.3516V59.5H121.867Z" fill="white"/>
<path fill-rule="evenodd" clip-rule="evenodd" d="M227 35C229.667 35 232.333 35 235 35C235 43.667 235 52.333 235 61C232.333 61 229.667 61 227 61C227 52.333 227 43.667 227 35Z" fill="#196986"/>
<path fill-rule="evenodd" clip-rule="evenodd" d="M238 35C246 35 254 35 262 35C262 37.333 262 39.667 262 42C259.333 42 256.667 42 254 42C254 48.333 254 54.667 254 61C251.667 61 249.333 61 247 61C247 54.667 247 48.333 247 42C244 42 241 42 238 42C238 39.667 238 37.333 238 35Z" fill="#0E6683"/>
</svg>